# xmcd
#
# Track frame offsets:
#	190
#	18550
#	38412
#	58627
#	98265
#	120820
#	143047
#	170160
#
# Disc length: 2594 seconds
#
# Revision: 0
# Processed by: cddbd v1.5.2PL0 Copyright (c) Steve Scherf et al.
# Submitted via: EasyCDDAExtractor 15.3.0.1
#
DISCID=570a2008
DTITLE=Gary B.B. Coleman - Romance Without Finance Is A Nuisance
DYEAR=1900
DGENRE=
TTITLE0=She Ain´t Ugly (She Just Don´t Look Like Nobody Else)
TTITLE1=Don´t Give Away That Recipe
TTITLE2=If You See My One-Eyed Woman
TTITLE3=Dealin´ From The Bottom Of The deck
TTITLE4=Romance Without Finance Is A Nuisance
TTITLE5=Food Stomp Annie
TTITLE6=Mr. Chicken Stew
TTITLE7=Mr. B.´s Frosting (Instrumental)
EXTD=
EXTT0=
EXTT1=
EXTT2=
EXTT3=
EXTT4=
EXTT5=
EXTT6=
EXTT7=
PLAYORDER=
